<?xml version="1.0" encoding="utf-8"?>
<!-- Generator: Adobe Illustrator 19.0.0, SVG Export Plug-In . SVG Version: 6.00 Build 0)  -->
<svg version="1.1" id="Layer_1" xmlns="http://www.w3.org/2000/svg" xmlns:xlink="http://www.w3.org/1999/xlink" x="0px" y="0px"
	 viewBox="0 0 1920 1080" style="enable-background:new 0 0 1920 1080;" xml:space="preserve">
<style type="text/css">
	.st0{fill:#F3EFE7;}
</style>
<g id="XMLID_8_">
	<path id="XMLID_12_" class="st0" d="M905.8,681.2c-4.7,0-8.3-2.8-12.3-4.7c-4.4-2.1-8.7-4.4-12.9-6.9c-5.8-3.5-11.4-7.4-17.3-10.9
		c-13.3-7.9-24.6-18-33.9-30.4c-2.7-3.6-5.7-7.1-8.4-10.8c-0.9-1.2-1.2-2.8-1.8-4.3c-1.5-3.7-3.1-7.3-4.3-11.1
		c-1-3.2-1.4-6.5-2.5-9.7c-1.7-4.7-3.7-9.3-6.5-13.6c-2.2-3.4-3.1-7.7-4.1-11.7c-1.2-4.5-2.9-8.7-4.6-12.9c-2.4-6.1-4.8-12.2-6-18.9
		c-1.3-7.2-2-14.4-1.5-21.6c0.6-8.7,1.8-17.4,3.3-26.1c1.2-7.4,3.2-14.7,4.9-22c0.9-4.2,1.9-8.4,2.9-12.5c0.1-0.4,0.6-0.7,0.9-1
		c0,0,0,0,0,0c0.4-4.4,2.8-8,4.4-11.9c1.9-4.5,4.1-8.9,6.5-13.2c2.1-3.8,4.4-7.4,6.9-10.9c2.7-3.7,5.4-7.6,8.7-10.7
		c1.7-1.6,3.4-3.3,5.1-5c6-6.2,12.1-12.4,18.1-18.7c3.4-3.5,7.6-6,11.4-8.9c5-3.8,10.3-7,15.9-9.8c6.4-3.3,13.1-5.7,20-8
		c9.1-3.1,18.4-4.2,28-4.9c7.2-0.5,14.6-1.4,21.7-2.6c7.9-1.4,15.6-0.6,23.4-0.6c5.5,0,10.9,1.5,16.3,2.7c6.4,1.4,13.1,2.5,19.3,4.3
		c5.8,1.8,12,1.8,17.7,4.3c2.8,1.2,6.2,1.3,9.3,2.1c6.4,1.7,11.7,5.3,17.3,8.4c4.9,2.7,9.7,5.4,14.4,8.3c3.5,2.1,6.8,4.5,10.2,7
		c3.4,2.5,6.8,5,10.2,7.7c6.1,4.9,11,11,16.2,17c4.4,5,8.3,10.4,11.3,16.3c2,4,2.9,8.5,4.5,12.8c2.5,6.6,3.3,13.7,6.4,20.2
		c1.5,3.1,2.2,6.6,3.2,9.9c4.8,15.7,1,31.7,1.8,47.5c0.6,11.8,0.5,23.8-0.2,35.6c-0.4,7.2-2.3,14.4-4.1,21.5
		c-1.5,5.9-3.4,11.7-5.7,17.3c-2.4,5.8-5.2,11.4-8.1,17c-2.8,5.4-5.7,10.8-8.9,16c-4,6.6-8.3,13.1-12.7,19.4
		c-5.2,7.3-11.4,13.6-18.5,19c-4.1,3.1-7.9,6.7-12.3,9.2c-4,2.2-8,4.7-12.5,6.1c-5.3,1.7-10.1,4.8-15.2,7.3
		c-0.8,0.4-1.8,0.4-2.7,0.5c-0.1,0-0.1,0-0.2-0.1c0.1,0,0.1,0,0.2,0c-2.6,0.9-5.1,2.1-7.7,2.6c-4.2,0.8-8.1,2.6-12.2,3.8
		c-3.7,1.1-7.7,1.3-11.6,1.8c-11.6,1.4-23.3,0.5-34.9,0.4c-5.2-0.1-10.5-1.4-15.7-2.4c-5.2-1-10.4-2.2-15.6-3.2
		c-5.2-1-10.4-2-15.6-3c-0.2,0-0.3-0.4-0.4-0.7l0,0c-3,0.3-5.8-0.4-8.5-1.4C906.1,682.1,906,681.5,905.8,681.2L905.8,681.2z
		 M1102.9,460.7c-0.2-0.1-0.5-0.2-0.6-0.4c-1.1-2.7-2.1-5.5-3.2-8.1c-2.1-4.9-4.8-9.5-6.2-14.6c-1.2-4.2-4-7.4-5.5-11.5
		c-1.2-3.3-4.8-5.6-6.9-8.7c-4.3-6.4-11.5-9.4-16.7-14.8c-4.3-4.5-9.3-8.1-14.8-11.3c-5.4-3.1-11.2-5.2-16.8-7.6
		c-3.7-1.6-7.9-2.3-11.9-3.3c-7.9-2-15.8-4.1-23.9-4.5c-8.1-0.4-16.3,0.9-24.5,1.3c-15.9,0.9-31.8,0.6-46.9,6.8
		c-5.1,2.1-10.7,2.3-16,3.6c-7.4,1.8-14.3,4.2-21,7.5c-2.8,1.4-5.7,2.6-8.4,4.2c-4.3,2.7-8.5,5.7-12.8,8.4
		c-4.9,3.1-10.3,5.7-14.9,9.2c-8.6,6.5-15.7,14.7-22.5,23.1c-4.5,5.6-6.8,12.1-9.5,18.5c-1.5,3.6-2.6,7.5-3.1,11.3
		c-1.3,10.7-2.4,21.3-3,32c-0.4,6.2,0.4,12.4,0.6,18.7c0,0,0,0.1,0,0.1c0,0,0-0.1,0-0.1c2,0.9,0.9,2.7,1.3,4.1
		c1.6,6.9,3,13.8,4.6,20.6c0.9,3.9,2.1,7.8,3.3,11.6c1.4,4.5,2.8,9,4.2,13.5c1.3,4.1,2.2,8.4,4.1,12.2c2.3,4.7,4,9.8,6.2,14.5
		c2.3,4.9,4.9,9.7,8.2,13.7c6.7,8.1,14.1,15.5,23.3,21.2c5.9,3.6,12.1,6.1,18.5,7.6c8.2,1.9,16.6,2.7,24.6,5.2
		c4.5,1.4,7.9,4.6,11.9,6.7c4.3,2.3,8.4,5.4,13,6.9c3.8,1.2,7.7,2.4,11.6,3.5c7.4,2.1,15.1,2.1,22.5,3.6c5.6,1.2,11.4-0.4,17.1-0.7
		c11.6-0.7,22.7-3,33.6-7c4.4-1.6,8.9-3.3,12.8-5.7c7.7-4.7,15.5-9.1,22.5-15.1c7-6,12.7-12.7,17.7-20.2c2.8-4.2,4.7-8.9,8.3-12.5
		l0,0c3.1-5,6.2-9.9,9.1-14.9c3.3-5.7,6.6-11.5,9.8-17.3c2.3-4.2,4.9-8.4,6.5-12.9c2.1-5.9,4.2-11.9,5.1-18.3
		c0.7-5.2,2.6-10.2,3.1-15.4c0.7-8,0.5-16,0.7-24c0-1.5,0.1-3.2-0.5-4.5c-2.1-4.7-4.7-9.1-6.6-13.8c-1.7-4.1-2.5-8.5-4-12.7
		C1105.7,467.3,1104.2,464,1102.9,460.7C1102.9,460.7,1102.9,460.7,1102.9,460.7C1102.9,460.7,1102.9,460.7,1102.9,460.7z"/>
	<path id="XMLID_3_" class="st0" d="M885.4,580c2.9,3.4,5.6,6.9,8.7,10.1c6,6.3,12.8,11.4,20.7,15.3c6.3,3.1,11.8,7.6,17.9,11.1
		c3.1,1.8,6.5,3.4,10,4.3c8.1,2.2,16.5,1.8,24.8,1.8c6.7,0,12.8-3.1,19.2-4.8c4.1-1.1,8.4-1.7,12.1-3.5c5.9-2.8,12-4.9,17.6-8.3
		c6.6-4,12.3-9,18.4-13.6c5.8-4.3,11.9-8.3,16.8-13.4c5.8-6,11.3-12.3,13.5-20.9c0.8-3,2.9-5.9,6-6.7c4.4-1.2,7.8,0.9,9.6,4.9
		c1.2,2.8,0,5.8-1,8.6c-1.3,3.3-1.9,7.1-3.8,10.1c-1.9,3-5.1,5-7.4,7.8c-4.6,5.8-9.9,10.9-15.8,15.4c-4.3,3.3-8.6,6.7-12.9,10
		c-5.3,3.9-10.6,8-16.2,11.5c-4.8,3-9.8,5.6-15.3,7.3c-5.1,1.6-10.1,3.9-15.3,5.1c-4.4,1-8.7,2.4-13,3.6c-5.8,1.7-11.5,3-17.4,2.6
		c-7.6-0.4-15.3-0.8-22.7-2.2c-7.1-1.3-13.6-4.9-19.5-8.9c-6.1-4.2-12.5-7.8-18.9-11.5c-8.3-4.8-15.4-11.1-21.4-18.7
		c-5.6-7.2-11.7-14.1-16.9-21.5c-3.3-4.7-7.2-8.8-10.5-13.4c-1.9-2.6-0.4-5.9,1.8-7.9c4.6-4.4,11.2-2.2,15.2,4
		c4.7,7.2,10.2,13.9,15.4,20.9C885.2,579.3,885.3,579.7,885.4,580C885.4,580.1,885.4,580,885.4,580z"/>
	<path id="XMLID_2_" class="st0" d="M985.1,465.1c1.7-4,4.8-7.1,8.2-9.6c4.6-3.4,9.2-7,15.6-6.1c4.6,0.7,8,3.5,11.6,6.2
		c5.5,4.3,7.6,10.3,10.3,16.5c2.8,6.7,0.4,13.5,2.5,19.9c2.2,6.7-1.9,12-3.6,17.9c-1.8,6.2-14.3,13.6-20.4,11.5
		c-4.9-1.7-10.2-2.8-14.5-5.5c-6.1-3.9-12.1-7.9-15.6-15c-3.5-7.1-2.3-14-0.7-20.9c1.1-5,3.7-9.8,5.7-14.6
		C984.2,465.1,984.8,465.2,985.1,465.1C985.1,465.1,985.1,465.1,985.1,465.1z"/>
	<path id="XMLID_1_" class="st0" d="M900.8,460.1c11-1.7,18.4,4.4,23.8,13.6c2.5,4.2,3.6,8.8,4.5,13.7c0.9,4.9,2.6,9.6,2,14.6
		c-1.2,9.2-3.9,18.1-13.6,21.3c-5.4,1.7-11.5,1.6-17.4-0.9c-5.9-2.5-11.7-5.8-14.9-10.6c-4.4-6.6-12.3-10.4-14.4-19
		c-1.5-6-2.4-12-1.4-17.9c0.6-3.8,3.7-7.4,7.5-9.4C884,461.4,891.8,459.3,900.8,460.1z"/>
</g>
</svg>
