<?xml version="1.0" standalone="no"?>
<!DOCTYPE svg PUBLIC "-//W3C//DTD SVG 20010904//EN"
 "http://www.w3.org/TR/2001/REC-SVG-20010904/DTD/svg10.dtd">
<svg version="1.0" xmlns="http://www.w3.org/2000/svg"
 width="960.000000pt" height="960.000000pt" viewBox="0 0 960.000000 960.000000"
 preserveAspectRatio="xMidYMid meet">
<metadata>
Created by potrace 1.11, written by Peter Selinger 2001-2013
</metadata>
<g transform="translate(0.000000,960.000000) scale(0.100000,-0.100000)"
fill="#000000" stroke="none">
<path d="M4345 9590 c-55 -12 -112 -20 -171 -25 -27 -2 -49 -5 -49 -6 0 0 -18
-3 -40 -5 -22 -1 -60 -5 -85 -8 -50 -5 -200 -17 -270 -21 -25 -2 -45 -4 -45
-5 0 -1 -20 -3 -45 -5 -39 -4 -103 -13 -210 -31 -47 -8 -82 -15 -149 -30 -36
-9 -74 -17 -83 -19 -9 -2 -26 -9 -37 -15 -12 -6 -21 -8 -21 -4 0 3 -7 1 -15
-6 -8 -7 -15 -10 -15 -6 0 3 -17 -1 -37 -10 -21 -9 -54 -20 -73 -26 -19 -5
-44 -13 -55 -18 -17 -8 -71 -30 -85 -35 -12 -4 -48 -18 -95 -37 -66 -27 -266
-126 -285 -142 -8 -7 -22 -16 -30 -19 -8 -4 -37 -20 -65 -37 -27 -17 -58 -33
-68 -36 -9 -4 -17 -10 -17 -15 0 -5 -7 -9 -15 -9 -8 0 -15 -4 -15 -10 0 -5 -5
-10 -10 -10 -10 0 -99 -63 -170 -120 -14 -11 -31 -20 -37 -20 -7 0 -13 -3 -13
-7 0 -5 -21 -21 -48 -38 -26 -16 -49 -32 -52 -35 -3 -3 -23 -18 -45 -35 -45
-33 -255 -245 -255 -257 0 -4 -4 -8 -9 -8 -4 0 -55 -48 -112 -106 -57 -59
-180 -184 -272 -278 -156 -158 -297 -323 -297 -346 0 -6 -4 -10 -9 -10 -5 0
-25 -26 -45 -57 -19 -32 -39 -62 -44 -68 -4 -5 -11 -17 -15 -25 -11 -21 -25
-44 -76 -124 -48 -77 -132 -237 -175 -336 -16 -36 -44 -99 -63 -140 -49 -106
-91 -210 -97 -244 -3 -15 -13 -40 -23 -55 -9 -14 -18 -30 -20 -36 -1 -5 -4
-20 -7 -33 -3 -13 -7 -31 -10 -40 -3 -9 -7 -28 -10 -42 -5 -33 -11 -58 -36
-165 -12 -49 -23 -97 -25 -105 -2 -8 -8 -33 -13 -55 -6 -22 -14 -53 -17 -70
-3 -16 -8 -39 -10 -50 -3 -11 -7 -31 -10 -45 -4 -14 -8 -36 -11 -50 -3 -14
-10 -45 -15 -70 -17 -73 -53 -276 -65 -355 -1 -11 -3 -21 -4 -22 -2 -2 -4 -12
-5 -23 -1 -11 -3 -21 -4 -22 -2 -2 -4 -16 -6 -33 -2 -16 -7 -48 -10 -70 -6
-40 -8 -50 -20 -155 -3 -30 -8 -68 -11 -85 -3 -16 -7 -122 -9 -235 -5 -223 4
-306 50 -475 9 -33 18 -67 20 -75 2 -8 8 -35 14 -60 7 -25 14 -56 17 -69 7
-33 86 -272 118 -354 23 -63 31 -82 66 -162 7 -16 15 -37 16 -45 2 -8 7 -23
13 -35 15 -31 51 -147 67 -217 10 -45 13 -55 24 -83 6 -16 11 -31 11 -32 -1
-2 -1 -4 0 -5 0 -2 2 -11 4 -21 4 -22 38 -91 65 -132 11 -16 25 -41 32 -55 7
-14 15 -27 18 -30 3 -3 20 -39 39 -80 34 -76 38 -84 66 -155 16 -39 32 -100
42 -160 3 -16 6 -34 8 -40 1 -5 5 -28 10 -50 4 -22 11 -45 16 -50 4 -6 10 -22
13 -35 2 -14 11 -41 19 -60 24 -58 30 -75 33 -85 1 -5 14 -41 29 -80 15 -38
34 -91 41 -117 8 -27 19 -48 24 -48 6 0 10 -5 10 -11 0 -9 76 -127 89 -139 4
-3 25 -30 48 -61 23 -31 47 -62 55 -70 7 -8 40 -48 73 -89 127 -160 255 -295
409 -432 79 -70 244 -197 336 -257 47 -31 87 -59 88 -63 2 -5 8 -8 13 -8 4 0
59 -32 121 -72 62 -39 123 -76 135 -82 13 -6 23 -14 23 -18 0 -5 6 -8 14 -8 8
0 16 -3 18 -7 4 -9 65 -53 73 -53 3 0 39 -22 80 -50 41 -27 75 -46 75 -43 0 3
8 -1 18 -9 9 -8 53 -35 97 -58 44 -24 82 -46 85 -49 3 -3 10 -7 15 -8 6 -1 43
-20 84 -42 41 -23 80 -41 87 -41 7 0 14 -3 16 -7 2 -5 35 -23 73 -41 39 -19
77 -37 85 -42 13 -6 86 -22 113 -24 4 -1 11 -7 16 -14 4 -7 18 -14 30 -17 12
-2 31 -7 42 -10 10 -4 48 -7 84 -7 36 -1 65 -4 65 -8 0 -7 47 -19 100 -26 14
-2 41 -6 60 -10 19 -4 41 -8 48 -10 19 -4 143 -24 167 -27 11 -1 25 -5 30 -9
6 -3 26 -7 45 -9 19 -2 41 -7 48 -12 6 -5 12 -7 12 -4 0 3 17 1 38 -4 20 -5
78 -18 127 -29 50 -11 119 -27 155 -35 36 -9 74 -17 85 -20 11 -2 31 -6 45 -9
14 -2 39 -7 55 -10 17 -3 41 -8 55 -11 68 -18 275 -25 670 -24 372 1 440 3
440 10 0 3 17 6 38 6 20 0 66 3 102 7 36 4 81 9 100 11 86 7 238 44 265 65 6
4 35 15 65 25 30 10 60 21 65 25 10 8 39 14 135 30 55 9 125 31 164 52 12 6
30 12 41 13 39 3 85 17 85 26 0 5 5 9 10 9 15 0 163 71 183 88 9 8 17 12 17 9
0 -3 26 7 58 22 31 16 86 39 122 52 152 53 441 218 533 304 21 19 42 35 47 35
4 0 10 4 12 8 2 4 30 29 63 55 79 63 91 72 165 137 81 70 246 236 285 285 17
21 35 43 40 49 16 18 163 217 195 266 8 12 22 29 30 38 8 9 14 17 13 19 -2 1
21 40 50 85 129 203 247 402 247 418 0 5 4 10 8 10 5 0 18 21 30 47 12 27 49
98 82 158 33 61 70 130 82 155 12 25 26 48 31 51 5 3 8 9 8 13 -1 3 15 41 35
83 48 105 95 219 95 233 1 3 4 10 9 15 4 6 13 28 19 50 7 22 16 49 21 60 10
23 68 202 75 231 3 10 16 60 29 110 14 50 27 101 30 115 3 13 12 54 20 90 8
36 17 83 20 104 4 21 8 47 11 59 17 76 28 195 29 318 1 60 3 108 6 108 3 0 4
111 3 247 -1 137 -2 267 -2 291 0 23 -1 50 -2 60 -2 31 1 572 5 877 2 165 1
304 -2 310 -4 5 -7 23 -8 40 -2 16 -6 50 -10 75 -4 25 -9 52 -10 60 -1 8 -12
53 -23 100 -11 47 -28 116 -37 154 -9 39 -27 89 -39 112 -18 34 -28 58 -39 94
-1 3 -4 10 -7 15 -8 12 -67 213 -72 240 -1 11 -5 25 -9 30 -3 6 -9 28 -13 50
-4 22 -12 46 -18 53 -5 6 -7 12 -4 12 3 0 -8 37 -24 83 -55 149 -68 187 -63
187 3 0 -1 7 -10 15 -8 9 -13 22 -10 29 3 8 1 17 -5 21 -6 3 -11 13 -11 20 0
8 -12 40 -27 72 -14 32 -26 61 -25 65 1 3 -5 12 -13 18 -8 7 -15 17 -15 21 0
12 -82 143 -92 147 -4 2 -8 10 -8 18 0 8 -7 17 -15 20 -8 4 -15 10 -15 16 0
10 -92 127 -143 181 -19 20 -33 37 -31 37 2 0 -4 8 -13 18 -10 10 -43 47 -73
82 -30 35 -62 71 -70 80 -8 9 -32 34 -52 57 -20 23 -39 39 -41 36 -3 -2 -8 5
-12 16 -3 12 -9 21 -13 21 -4 0 -32 23 -62 50 -30 27 -58 50 -62 50 -5 0 -16
8 -26 18 -29 27 -63 55 -127 102 -33 25 -66 50 -73 57 -7 7 -26 20 -42 30 -17
9 -30 21 -30 25 0 4 -6 8 -14 8 -7 0 -19 7 -26 15 -14 17 -294 205 -305 205
-4 0 -19 9 -35 20 -15 11 -29 17 -32 14 -3 -2 -11 2 -18 11 -7 8 -17 15 -22
15 -5 0 -59 28 -121 63 -62 35 -152 85 -202 112 -49 26 -104 56 -121 66 -17
10 -33 16 -36 14 -3 -3 -11 1 -18 10 -7 8 -20 15 -29 15 -9 0 -21 4 -27 9 -10
9 -182 66 -229 76 -16 3 -43 8 -60 11 -44 8 -60 12 -60 14 0 1 -11 3 -24 6
-14 2 -29 8 -35 13 -6 4 -24 12 -41 16 -16 5 -34 9 -40 11 -25 7 -145 31 -200
40 -41 7 -65 12 -95 19 -14 3 -36 8 -50 11 -14 3 -43 10 -65 16 -83 23 -104
29 -150 38 -171 34 -305 60 -330 64 -48 9 -118 24 -153 35 -18 5 -35 10 -37
10 -8 0 -106 20 -135 28 -38 10 -890 13 -935 3z m1565 -803 c14 -4 43 -9 64
-12 21 -3 48 -7 60 -10 12 -3 32 -7 46 -9 14 -2 93 -21 175 -41 83 -20 157
-38 165 -40 8 -2 51 -13 95 -25 44 -12 90 -24 102 -26 12 -2 33 -8 45 -13 13
-5 26 -9 30 -10 20 -4 157 -57 223 -86 17 -7 75 -32 130 -56 55 -24 117 -53
138 -66 20 -13 37 -20 37 -17 0 4 8 1 18 -7 9 -8 35 -23 57 -34 50 -24 149
-87 153 -97 2 -5 8 -8 14 -8 16 0 92 -64 177 -148 41 -40 89 -83 105 -95 17
-11 33 -24 36 -27 3 -4 28 -22 55 -40 28 -19 52 -37 53 -42 2 -4 8 -8 13 -8 9
0 99 -70 147 -114 12 -12 41 -46 65 -76 23 -30 68 -81 100 -113 71 -72 99
-114 128 -192 12 -32 35 -81 50 -107 16 -26 26 -48 24 -48 -3 0 6 -19 19 -42
12 -24 33 -72 45 -108 37 -105 42 -118 132 -305 29 -60 53 -112 53 -115 -1 -3
22 -52 49 -110 80 -172 97 -208 97 -214 0 -3 13 -33 29 -66 16 -33 27 -60 25
-60 -3 0 2 -12 9 -27 12 -24 73 -221 82 -264 2 -8 11 -33 20 -55 9 -21 18 -46
20 -54 5 -22 77 -185 128 -286 24 -49 47 -102 51 -119 8 -31 8 -384 1 -575 -9
-213 -15 -268 -44 -385 -29 -115 -39 -161 -46 -215 -5 -37 -35 -171 -45 -200
-4 -14 -18 -59 -30 -100 -12 -41 -27 -81 -32 -88 -6 -6 -8 -12 -4 -12 17 0
-97 -252 -176 -389 -26 -46 -48 -85 -48 -87 0 -1 -20 -36 -44 -77 -24 -41 -60
-103 -79 -138 -19 -35 -49 -89 -66 -119 -18 -30 -35 -63 -38 -72 -3 -10 -9
-18 -14 -18 -5 0 -9 -4 -9 -9 0 -8 -66 -121 -120 -206 -8 -13 -44 -70 -79
-127 -36 -56 -82 -126 -103 -155 -21 -29 -38 -57 -38 -63 0 -5 -4 -10 -8 -10
-5 0 -19 -23 -32 -50 -13 -28 -27 -50 -32 -50 -4 0 -10 -11 -14 -24 -3 -14
-26 -53 -50 -88 -24 -35 -50 -72 -56 -82 -46 -69 -220 -276 -299 -356 -105
-105 -138 -135 -219 -197 -30 -24 -60 -47 -66 -51 -36 -31 -328 -218 -446
-287 -65 -38 -169 -95 -198 -108 -122 -54 -155 -68 -248 -101 -57 -21 -111
-39 -120 -41 -9 -3 -57 -16 -107 -30 -49 -14 -99 -28 -110 -30 -116 -26 -208
-44 -213 -44 -4 1 -9 0 -12 -1 -13 -5 -178 -24 -217 -25 -18 0 -33 -2 -33 -5
0 -3 -39 -6 -88 -8 -99 -3 -166 -8 -202 -17 -31 -7 -213 -7 -260 0 -54 9 -100
14 -155 19 -27 3 -50 5 -50 6 0 1 -18 3 -40 5 -81 8 -146 16 -230 30 -11 1
-51 10 -88 20 -37 9 -73 18 -80 19 -13 3 -38 12 -76 27 -13 5 -26 8 -29 5 -2
-3 -17 1 -32 9 -15 8 -30 11 -34 8 -3 -4 -6 -1 -6 6 0 7 -5 9 -11 5 -6 -3 -21
-2 -32 4 -12 5 -51 20 -87 32 -36 12 -90 36 -120 52 -96 52 -145 81 -162 96
-10 8 -18 12 -18 8 0 -4 -6 -2 -12 4 -18 15 -95 68 -208 144 -78 52 -139 79
-202 92 -5 1 -9 2 -10 4 -3 2 -31 9 -63 15 -11 2 -38 9 -60 14 -62 15 -265 57
-320 66 -50 8 -89 16 -94 19 -3 2 -22 7 -41 10 -19 3 -46 8 -60 11 -14 3 -38
8 -53 10 -68 13 -193 62 -324 127 -79 40 -143 75 -143 80 0 4 -5 8 -11 8 -16
0 -151 93 -234 161 -113 92 -155 135 -319 319 -68 76 -184 239 -177 249 2 2
-1 7 -6 10 -11 7 -141 270 -178 361 -15 36 -32 76 -38 90 -6 14 -11 27 -12 30
-3 10 -23 55 -53 120 -40 89 -84 222 -143 430 -6 19 -15 44 -20 55 -5 11 -11
29 -12 40 -2 11 -7 27 -10 35 -9 22 -97 321 -103 349 -3 13 -11 39 -19 57 -8
19 -12 34 -10 34 3 0 0 11 -5 25 -5 14 -12 36 -14 48 -2 12 -10 45 -16 72 -6
28 -25 113 -41 190 -16 77 -32 151 -35 165 -3 14 -7 34 -10 45 -2 11 -7 38
-11 60 -5 22 -8 57 -7 77 1 24 -5 44 -17 57 -10 11 -18 30 -18 43 1 13 -2 70
-6 128 -13 169 -8 460 10 615 3 22 7 76 10 120 4 44 8 91 10 105 2 14 7 57 10
95 3 39 8 86 10 105 11 88 16 128 20 192 7 101 28 181 90 337 30 78 55 143 55
146 0 30 161 316 200 355 9 9 29 33 45 55 17 22 37 46 45 55 8 8 33 37 55 65
101 124 294 318 395 396 24 18 53 42 65 52 20 18 250 167 258 167 3 0 46 25
96 55 51 30 96 55 101 55 4 0 10 3 12 8 2 4 37 27 78 51 41 25 118 74 170 109
121 83 187 122 205 122 8 0 15 5 15 10 0 6 6 10 13 8 6 -1 60 21 119 50 59 29
151 69 205 88 102 38 343 106 343 98 0 -3 5 -2 11 2 12 7 60 15 107 17 12 0
22 3 22 7 0 3 15 5 33 6 43 1 114 13 143 24 13 5 24 8 24 5 0 -2 17 3 38 12
20 8 48 20 62 26 14 6 27 11 30 12 24 6 87 29 95 35 6 4 17 8 25 8 8 1 49 11
90 22 93 26 104 28 155 35 22 3 47 8 55 10 18 5 77 13 150 21 135 14 158 15
415 29 66 3 145 8 175 10 30 2 98 6 150 10 52 3 106 8 120 10 14 3 66 8 115
11 50 3 91 7 93 9 5 5 378 -2 402 -8z"/>
<path d="M6020 6747 c-25 -4 -49 -9 -55 -10 -20 -5 -110 -51 -123 -64 -7 -7
-19 -13 -27 -13 -7 0 -15 -3 -17 -7 -1 -5 -21 -21 -43 -38 -69 -50 -195 -171
-195 -187 0 -4 -6 -13 -12 -20 -7 -7 -21 -29 -32 -48 -10 -19 -24 -40 -32 -46
-22 -18 -136 -266 -150 -326 -2 -10 -6 -27 -9 -39 -2 -11 -6 -28 -9 -37 -43
-141 -57 -356 -29 -451 8 -29 16 -59 17 -65 1 -6 6 -18 11 -26 5 -8 10 -17 11
-20 1 -9 29 -65 37 -75 4 -5 21 -28 37 -50 53 -71 117 -131 216 -204 38 -28
74 -55 81 -61 35 -29 138 -90 185 -108 104 -42 113 -45 123 -46 6 -1 48 -14
95 -30 54 -19 104 -29 135 -28 43 1 90 7 90 12 0 1 10 3 23 6 44 8 157 67 223
115 105 77 143 130 183 251 9 26 20 56 25 65 9 17 23 52 25 63 1 3 4 10 7 15
4 6 14 40 23 77 18 74 16 143 -8 248 -10 40 -16 124 -17 220 -2 155 -25 300
-49 308 -6 2 -10 9 -10 16 0 7 -9 30 -19 52 -10 21 -33 70 -50 107 -57 125
-116 200 -226 287 -177 141 -296 184 -435 157z"/>
<path d="M2995 6462 c-1 -2 -21 -5 -43 -7 -32 -3 -114 -14 -142 -20 -73 -15
-220 -77 -305 -130 -22 -14 -49 -29 -60 -34 -59 -28 -135 -129 -151 -201 -4
-19 -10 -42 -12 -50 -6 -22 -6 -279 0 -320 17 -105 55 -226 91 -289 32 -57 83
-118 194 -231 111 -115 127 -133 175 -195 86 -111 353 -269 508 -300 47 -10
272 -15 285 -7 5 4 16 7 24 9 36 5 117 37 155 60 36 22 119 102 152 144 14 19
75 149 79 169 2 8 9 35 16 60 7 25 13 47 14 50 1 3 5 30 9 60 22 143 23 160
15 205 -4 22 -10 54 -13 70 -8 48 -35 175 -51 240 -8 33 -16 71 -19 85 -11 63
-94 270 -117 290 -3 3 -20 27 -39 54 -37 55 -163 186 -179 186 -5 0 -16 6 -23
13 -11 10 -47 29 -128 67 -36 17 -114 24 -268 24 -90 1 -165 0 -167 -2z"/>
<path d="M7900 3946 c-37 -11 -41 -13 -81 -48 -49 -44 -66 -77 -109 -213 -25
-79 -104 -227 -142 -269 -10 -11 -18 -23 -18 -27 0 -4 -6 -14 -12 -21 -7 -7
-28 -31 -47 -53 -102 -121 -230 -242 -356 -335 -33 -25 -66 -51 -74 -58 -8 -7
-26 -21 -40 -30 -21 -13 -498 -360 -536 -389 -33 -26 -126 -83 -135 -83 -5 0
-10 -4 -10 -9 0 -5 -11 -12 -25 -15 -14 -4 -25 -11 -25 -16 0 -6 -4 -10 -9
-10 -5 0 -26 -8 -47 -17 -22 -9 -42 -16 -46 -15 -5 1 -8 -3 -8 -10 0 -6 -3 -8
-7 -5 -3 4 -16 1 -27 -6 -12 -7 -43 -22 -71 -32 -27 -10 -81 -33 -120 -51 -63
-29 -154 -63 -180 -68 -5 -1 -16 -5 -22 -9 -7 -5 -13 -6 -13 -4 0 3 -42 -6
-92 -19 -51 -14 -100 -27 -108 -29 -8 -2 -15 -4 -15 -5 0 -1 -7 -3 -15 -5 -25
-5 -152 -45 -190 -60 -110 -43 -177 -50 -460 -50 -248 0 -345 5 -420 19 -122
25 -222 55 -285 87 -80 41 -203 112 -234 136 -72 56 -272 176 -391 235 -80 40
-149 76 -155 80 -5 4 -48 33 -95 64 -96 64 -125 89 -265 229 -148 147 -275
298 -275 326 0 19 -77 149 -100 169 -4 3 -39 51 -80 108 -41 56 -78 102 -82
102 -4 0 -8 7 -8 15 0 8 -4 15 -10 15 -5 0 -10 6 -10 14 0 8 -3 16 -7 18 -13
5 -73 86 -73 97 0 6 -4 11 -10 11 -5 0 -10 7 -10 15 0 8 -3 15 -7 15 -5 0 -21
20 -36 44 -59 94 -156 157 -246 162 -109 5 -215 -85 -228 -195 -6 -50 7 -86
47 -132 11 -13 48 -60 83 -104 34 -45 72 -92 85 -105 12 -13 24 -31 27 -41 3
-9 12 -20 20 -23 8 -3 15 -10 15 -15 0 -5 9 -20 20 -33 24 -28 201 -265 215
-287 6 -9 19 -24 29 -33 10 -10 16 -18 12 -18 -4 0 6 -12 21 -28 15 -15 40
-43 54 -62 15 -19 37 -46 49 -60 12 -14 34 -40 48 -59 15 -19 32 -39 37 -45 6
-6 32 -38 60 -71 70 -84 198 -210 280 -275 107 -84 143 -110 154 -110 6 0 11
-4 11 -8 0 -5 11 -14 25 -20 14 -7 69 -40 123 -75 53 -35 113 -72 132 -83 19
-10 37 -21 40 -24 3 -3 50 -32 105 -64 55 -33 103 -64 107 -70 5 -7 8 -7 8 -1
0 6 3 6 8 -1 4 -6 35 -28 70 -50 35 -21 75 -47 90 -56 15 -10 50 -29 78 -43
28 -13 54 -28 58 -32 3 -4 14 -8 24 -9 9 -2 18 -8 20 -13 2 -6 9 -11 16 -11 7
0 40 -11 74 -25 34 -14 72 -27 84 -29 13 -3 23 -5 23 -6 0 -3 62 -17 111 -24
22 -4 46 -9 54 -11 24 -7 167 -23 270 -30 19 -2 35 -3 35 -4 0 -4 259 -15 335
-15 91 0 178 9 229 24 17 5 34 9 36 9 3 1 6 1 8 2 1 0 9 2 17 4 8 1 44 11 80
20 36 9 70 18 75 20 6 1 17 5 25 8 8 3 31 10 51 17 34 10 52 14 106 26 12 2
33 8 45 13 13 5 26 9 31 10 4 0 8 1 10 2 1 0 13 3 27 6 30 6 41 8 60 15 8 3
58 20 110 38 52 17 109 38 125 45 17 8 68 27 115 43 47 17 115 44 153 61 37
17 69 31 72 32 8 1 170 98 183 109 6 6 12 8 12 5 0 -3 6 -1 13 5 6 5 48 34 92
63 113 74 305 215 398 292 9 8 19 15 22 15 3 0 44 30 92 67 89 68 107 83 146
116 12 10 37 31 56 45 96 76 312 287 376 366 17 21 57 64 90 95 131 124 153
148 177 186 23 37 58 127 65 166 1 8 16 56 34 105 17 49 32 98 33 109 1 11 4
25 7 30 3 6 5 24 4 40 -8 125 -148 226 -265 191z"/>
</g>
</svg>
